<svg class="railroad-diagram" xmlns="http://www.w3.org/2000/svg" width="1713" height="81" viewBox="0 0 1713 81">
<style>
    svg.railroad-diagram {
        background-color: hsl(30,20%,95%);
    }
    svg.railroad-diagram path {
        stroke-width: 3;
        stroke: black;
        fill: rgba(0,0,0,0);
    }
    svg.railroad-diagram text {
        font: bold 14px monospace;
        text-anchor: middle;
    }
    svg.railroad-diagram text.label {
        text-anchor: start;
    }
    svg.railroad-diagram text.comment {
        font: italic 12px monospace;
    }
    svg.railroad-diagram rect {
        stroke-width: 3;
        stroke: black;
        fill: hsl(120,100%,90%);
    }
</style>
<g transform="translate(.5 .5)">
<path d="M 20 31 v 20 m 10 -20 v 20 m -10 -10 h 20.5"></path>
<g>
<path d="M40 41h0"></path>
<path d="M1672 41h0"></path>
<path d="M40 41h10"></path>
<g>
<path d="M50 41h0"></path>
<path d="M190 41h0"></path>
<rect x="50" y="30" width="140" height="22" rx="10" ry="10"></rect>
<text x="120" y="45">stateDefinition</text>
</g>
<path d="M190 41h10"></path>
<path d="M200 41h10"></path>
<g>
<path d="M210 41h0"></path>
<path d="M246 41h0"></path>
<rect x="210" y="30" width="36" height="22"></rect>
<text x="228" y="45">ID</text>
</g>
<path d="M246 41h10"></path>
<path d="M256 41h10"></path>
<g>
<path d="M266 41h0"></path>
<path d="M294 41h0"></path>
<rect x="266" y="30" width="28" height="22" rx="10" ry="10"></rect>
<text x="280" y="45">:</text>
</g>
<path d="M294 41h10"></path>
<path d="M304 41h10"></path>
<g>
<path d="M314 41h0"></path>
<path d="M342 41h0"></path>
<rect x="314" y="30" width="28" height="22" rx="10" ry="10"></rect>
<text x="328" y="45">{</text>
</g>
<path d="M342 41h10"></path>
<path d="M352 41h10"></path>
<g>
<path d="M362 41h0"></path>
<path d="M614 41h0"></path>
<rect x="362" y="30" width="252" height="22"></rect>
<text x="488" y="45">TimeAdvanceStateConfiguration</text>
</g>
<path d="M614 41h10"></path>
<g>
<path d="M624 41h0"></path>
<path d="M1220 41h0"></path>
<path d="M624 41h10"></path>
<g>
<path d="M634 41h0"></path>
<path d="M742 41h0"></path>
<rect x="634" y="30" width="108" height="22" rx="10" ry="10"></rect>
<text x="688" y="45">transitions</text>
</g>
<path d="M742 41h10"></path>
<path d="M752 41h10"></path>
<g>
<path d="M762 41h0"></path>
<path d="M790 41h0"></path>
<rect x="762" y="30" width="28" height="22" rx="10" ry="10"></rect>
<text x="776" y="45">:</text>
</g>
<path d="M790 41h10"></path>
<path d="M800 41h10"></path>
<g>
<path d="M810 41h0"></path>
<path d="M838 41h0"></path>
<rect x="810" y="30" width="28" height="22" rx="10" ry="10"></rect>
<text x="824" y="45">{</text>
</g>
<path d="M838 41h10"></path>
<g>
<path d="M848 41h0"></path>
<path d="M1172 41h0"></path>
<path d="M848 41a10 10 0 0 0 10 -10v0a10 10 0 0 1 10 -10"></path>
<g>
<path d="M868 21h284"></path>
</g>
<path d="M1152 21a10 10 0 0 1 10 10v0a10 10 0 0 0 10 10"></path>
<path d="M848 41h20"></path>
<g>
<path d="M868 41h0"></path>
<path d="M1152 41h0"></path>
<path d="M868 41h10"></path>
<g>
<path d="M878 41h0"></path>
<path d="M1142 41h0"></path>
<path d="M878 41h10"></path>
<g>
<path d="M888 41h0"></path>
<path d="M1132 41h0"></path>
<rect x="888" y="30" width="244" height="22"></rect>
<text x="1010" y="45">ReceiveConditionWithOverride</text>
</g>
<path d="M1132 41h10"></path>
</g>
<path d="M1142 41h10"></path>
<path d="M878 41a10 10 0 0 0 -10 10v0a10 10 0 0 0 10 10"></path>
<g>
<path d="M878 61h264"></path>
</g>
<path d="M1142 61a10 10 0 0 0 10 -10v0a10 10 0 0 0 -10 -10"></path>
</g>
<path d="M1152 41h20"></path>
</g>
<path d="M1172 41h10"></path>
<g>
<path d="M1182 41h0"></path>
<path d="M1210 41h0"></path>
<rect x="1182" y="30" width="28" height="22" rx="10" ry="10"></rect>
<text x="1196" y="45">}</text>
</g>
<path d="M1210 41h10"></path>
</g>
<g>
<path d="M1220 41h0"></path>
<path d="M1624 41h0"></path>
<path d="M1220 41h10"></path>
<g>
<path d="M1230 41h0"></path>
<path d="M1298 41h0"></path>
<rect x="1230" y="30" width="68" height="22" rx="10" ry="10"></rect>
<text x="1264" y="45">output</text>
</g>
<path d="M1298 41h10"></path>
<path d="M1308 41h10"></path>
<g>
<path d="M1318 41h0"></path>
<path d="M1346 41h0"></path>
<rect x="1318" y="30" width="28" height="22" rx="10" ry="10"></rect>
<text x="1332" y="45">:</text>
</g>
<path d="M1346 41h10"></path>
<path d="M1356 41h10"></path>
<g>
<path d="M1366 41h0"></path>
<path d="M1394 41h0"></path>
<rect x="1366" y="30" width="28" height="22" rx="10" ry="10"></rect>
<text x="1380" y="45">{</text>
</g>
<path d="M1394 41h10"></path>
<g>
<path d="M1404 41h0"></path>
<path d="M1576 41h0"></path>
<path d="M1404 41a10 10 0 0 0 10 -10v0a10 10 0 0 1 10 -10"></path>
<g>
<path d="M1424 21h132"></path>
</g>
<path d="M1556 21a10 10 0 0 1 10 10v0a10 10 0 0 0 10 10"></path>
<path d="M1404 41h20"></path>
<g>
<path d="M1424 41h0"></path>
<path d="M1556 41h0"></path>
<path d="M1424 41h10"></path>
<g>
<path d="M1434 41h0"></path>
<path d="M1546 41h0"></path>
<path d="M1434 41h10"></path>
<g>
<path d="M1444 41h0"></path>
<path d="M1536 41h0"></path>
<rect x="1444" y="30" width="92" height="22"></rect>
<text x="1490" y="45">OutputMap</text>
</g>
<path d="M1536 41h10"></path>
</g>
<path d="M1546 41h10"></path>
<path d="M1434 41a10 10 0 0 0 -10 10v0a10 10 0 0 0 10 10"></path>
<g>
<path d="M1434 61h112"></path>
</g>
<path d="M1546 61a10 10 0 0 0 10 -10v0a10 10 0 0 0 -10 -10"></path>
</g>
<path d="M1556 41h20"></path>
</g>
<path d="M1576 41h10"></path>
<g>
<path d="M1586 41h0"></path>
<path d="M1614 41h0"></path>
<rect x="1586" y="30" width="28" height="22" rx="10" ry="10"></rect>
<text x="1600" y="45">}</text>
</g>
<path d="M1614 41h10"></path>
</g>
<path d="M1624 41h10"></path>
<g>
<path d="M1634 41h0"></path>
<path d="M1662 41h0"></path>
<rect x="1634" y="30" width="28" height="22" rx="10" ry="10"></rect>
<text x="1648" y="45">}</text>
</g>
<path d="M1662 41h10"></path>
</g>
<path d="M 1672 41 h 20 m -10 -10 v 20 m 10 -20 v 20"></path>
</g>
</svg>
